<svg xmlns="http://www.w3.org/2000/svg" version="1.1" xmlns:xlink="http://www.w3.org/1999/xlink" xmlns:svgjs="http://svgjs.dev/svgjs" viewBox="0 0 800 800"><defs><filter id="uuunion-blur" x="-100%" y="-100%" width="400%" height="400%" color-interpolation-filters="sRGB">
        <feGaussianBlur in="SourceGraphic" stdDeviation="7.5 0" result="blur"></feGaussianBlur>
        <feDropShadow stdDeviation="12.307692307692308" in="blur" dx="10" dy="10" flood-color="hsl(316, 73%, 52%)" flood-opacity="0.25" x="0%" y="0%" width="100%" height="100%"></feDropShadow>
      </filter><filter id="uuunion-blur2" x="-100%" y="-100%" width="400%" height="400%" color-interpolation-filters="sRGB">
        <feGaussianBlur in="SourceGraphic" stdDeviation="7.5 0" result="blur"></feGaussianBlur>
        <feDropShadow stdDeviation="12.307692307692308" in="blur" dx="-10" dy="-10" flood-color="hsl(316, 73%, 52%)" flood-opacity="0.25" x="0%" y="0%" width="100%" height="100%"></feDropShadow>
      </filter><linearGradient gradientTransform="rotate(0, 0.5, 0.5)" x1="50%" y1="0%" x2="50%" y2="100%" id="uuunion-grad"><stop stop-color="hsl(37, 99%, 67%)" offset="10%"></stop><stop stop-color="hsl(316, 73%, 52%)" offset="90%"></stop></linearGradient><linearGradient gradientTransform="rotate(135, 0.5, 0.5)" x1="50%" y1="0%" x2="50%" y2="100%" id="uuunion-grad2"><stop stop-color="hsl(37, 99%, 67%)" offset="25%"></stop><stop stop-color="hsl(316, 73%, 52%)" offset="100%"></stop></linearGradient><linearGradient gradientTransform="rotate(333, 0.5, 0.5)" x1="50%" y1="0%" x2="50%" y2="100%" id="uuunion-grad3"><stop stop-color="hsl(37, 99%, 67%)" offset="0%"></stop><stop stop-color="hsl(316, 73%, 52%)" offset="75%"></stop></linearGradient></defs><path d="M-79.02 -80.25Q-64.37 -77.64 -49.72 -75.24 -35.07 -73.26 -20.42 -71.89 -5.77 -71.24 8.88 -71.37 23.53 -72.27 38.18 -73.86 52.83 -76 67.48 -78.5 82.13 -81.13 96.78 -83.66 111.43 -85.86 126.08 -87.54 140.73 -88.54 155.38 -88.78 170.03 -88.24 184.69 -86.96 199.34 -85.05 213.99 -82.7 228.64 -80.1 243.29 -77.5 257.94 -75.12 272.59 -73.17 287.24 -71.83 301.89 -71.23 316.54 -71.4 331.19 -72.34 345.84 -73.97 360.5 -76.14 375.15 -78.65 389.8 -81.28 404.45 -83.79 419.1 -85.97 433.75 -87.61 448.4 -88.57 463.05 -88.77 477.7 -88.18 492.35 -86.86 507 -84.93 521.65 -82.56 536.31 -79.96 550.96 -77.36 565.61 -74.99 580.26 -73.08 594.91 -71.78 609.56 -71.21 624.21 -71.43 638.86 -72.42 653.51 -74.08 668.16 -76.27 682.81 -78.79 697.46 -81.42 712.12 -83.92 726.77 -86.08 741.42 -87.68 756.07 -88.61 770.72 -88.76 785.37 -88.13 800.02 -86.77 814.67 -84.81 829.32 -82.42 843.97 -79.81 858.62 -77.22 856.01 -62.15 856.89 -47.07 861.16 -32 868.17 -16.93 876.91 -1.86 886.11 13.2 894.41 28.27 900.6 43.34 903.79 58.41 903.49 73.48 899.77 88.56 893.15 103.63 884.61 118.7 875.4 133.77 866.86 148.84 860.24 163.91 856.5 178.98 856.2 194.05 859.37 209.12 865.56 224.19 873.86 239.27 883.05 254.34 891.8 269.41 898.82 284.48 903.09 299.55 903.99 314.62 901.38 329.69 895.65 344.76 887.63 359.83 878.49 374.9 869.58 389.98 862.18 405.05 857.39 420.12 855.91 435.19 857.94 450.26 863.19 465.33 870.9 480.4 879.94 495.47 888.99 510.54 896.72 525.62 902.01 540.69 904.08 555.76 902.63 570.83 897.88 585.9 890.51 600.97 881.61 616.04 872.47 631.11 864.43 646.18 858.66 661.25 856.01 676.33 856.87 691.4 861.1 706.47 868.1 721.54 876.83 736.61 886.03 751.68 894.34 766.75 900.56 781.82 903.77 796.89 903.51 811.97 899.81 827.04 893.22 842.11 884.69 857.18 875.48 872.25 866.93 887.32 852.14 880.49 837.36 873.61 822.57 867.3 807.78 862.13 793 858.56 778.21 856.89 763.42 857.29 748.64 859.72 733.85 863.96 719.06 869.64 704.28 876.23 689.49 883.17 674.7 889.82 659.92 895.59 645.13 899.97 630.35 902.56 615.56 903.14 600.77 901.66 585.99 898.23 571.2 893.18 556.41 886.95 541.63 880.1 526.84 873.24 512.05 866.98 497.27 861.89 482.48 858.41 467.69 856.86 452.91 857.38 438.12 859.92 423.33 864.25 408.55 869.99 393.76 876.62 378.97 883.55 364.19 890.17 349.4 895.88 334.61 900.17 319.83 902.65 305.04 903.11 290.25 901.51 275.47 897.99 260.68 892.86 245.9 886.58 231.11 879.71 216.32 872.86 201.54 866.66 186.75 861.64 171.96 858.27 157.18 856.83 142.39 857.47 127.6 860.12 112.82 864.54 98.03 870.34 83.24 877.01 68.46 883.94 53.67 890.52 38.88 896.16 24.1 900.35 9.31 902.73 -5.47 903.08 -20.25 901.36 -35.04 897.74 -49.83 892.53 -64.61 886.2 -79.4 879.32 -79.79 864.32 -80.21 849.33 -80.6 834.34 -80.9 819.34 -81.07 804.35 -81.08 789.36 -80.93 774.36 -80.65 759.37 -80.27 744.38 -79.85 729.38 -79.45 714.39 -79.13 699.4 -78.94 684.4 -78.9 669.41 -79.02 654.42 -79.28 639.42 -79.65 624.43 -80.07 609.44 -80.47 594.44 -80.81 579.45 -81.03 564.46 -81.09 549.46 -81 534.47 -80.76 519.48 -80.41 504.48 -79.99 489.49 -79.58 474.49 -79.23 459.5 -78.99 444.51 -78.9 429.51 -78.96 414.52 -79.18 399.53 -79.52 384.53 -79.93 369.54 -80.34 354.55 -80.71 339.55 -80.97 324.56 -81.09 309.57 -81.05 294.57 -80.85 279.58 -80.53 264.59 -80.13 249.59 -79.71 234.6 -79.34 219.61 -79.05 204.61 -78.91 189.62 -78.92 174.63 -79.09 159.63 -79.4 144.64 -79.79 129.65 -80.21 114.65 -80.6 99.66 -80.9 84.67 -81.07 69.67 -81.08 54.68 -80.94 39.69 -80.65 24.69 -80.27 9.7 -79.85 -5.28 -79.46 -20.28 -79.14 -35.27 -78.94 -50.27 -78.9 -65.26 -79.02 -80.25" fill="url(#uuunion-grad)"></path><path d="M-79.02 -80.25Q-78.9 -65.26 -78.94 -50.27 -79.14 -35.27 -79.46 -20.28 -79.85 -5.28 -80.27 9.7 -80.65 24.69 -80.94 39.69 -81.08 54.68 -81.07 69.67 -80.9 84.67 -80.6 99.66 -80.21 114.65 -79.79 129.65 -79.4 144.64 -79.09 159.63 -78.92 174.63 -78.91 189.62 -79.05 204.61 -79.34 219.61 -79.71 234.6 -80.13 249.59 -80.53 264.59 -80.85 279.58 -81.05 294.57 -81.09 309.57 -80.97 324.56 -80.71 339.55 -80.34 354.55 -79.93 369.54 -79.52 384.53 -79.18 399.53 -69.38 402.71 -59.57 405.79 -49.76 408.64 -39.96 411.14 -30.15 413.2 -20.35 414.73 -1.96 415.91 1.21 415.98 13.6 408.99 26.09 401.07 38.69 392.33 51.41 382.94 64.25 373.1 77.19 363.03 90.22 352.98 103.33 343.17 116.5 333.83 129.69 325.13 142.87 317.23 156.03 310.21 169.12 304.11 182.11 298.91 194.98 294.53 207.69 290.85 220.23 287.7 232.58 284.88 244.71 282.18 256.64 279.37 268.36 276.25 279.87 272.63 291.2 268.34 302.37 263.29 313.4 257.4 324.34 250.67 335.22 243.13 346.09 234.88 357 226.05 367.99 216.8 379.13 207.34 390.44 197.85 401.99 188.54 413.8 179.59 425.91 171.17 438.35 163.4 451.14 156.37 464.27 150.11 477.76 144.61 491.58 139.82 505.71 135.63 520.13 131.9 534.79 128.49 549.63 125.19 564.61 121.84 579.65 118.26 594.68 114.27 609.64 109.76 624.45 104.62 639.05 98.79 653.36 92.26 667.33 85.06 680.9 77.25 694.02 68.95 706.67 60.28 718.82 51.41 730.47 42.5 741.61 33.71 752.28 25.2 762.49 17.1 772.31 9.51 781.78 2.52 790.98 -3.83 800 -9.57 790.45 -26.82 782.8 -44.07 778.55 -61.32 778.55 -78.57 782.79 -95.81 790.44 -113.06 799.98 -130.31 809.53 -147.56 794.45 -147.89 779.38 -147.53 764.3 -146.5 749.22 -144.9 734.15 -142.87 719.07 -140.58 704 -138.24 688.92 -136.05 673.85 -134.22 658.77 -132.89 643.69 -132.19 628.62 -132.18 613.54 -132.85 598.47 -134.16 583.39 -135.98 568.31 -138.16 553.24 -140.5 538.16 -142.79 523.09 -144.84 508.01 -146.46 492.94 -147.51 477.86 -147.89 462.78 -147.58 447.71 -146.6 432.63 -145.04 417.56 -143.03 402.48 -140.76 387.41 -138.41 372.33 -136.21 357.25 -134.34 342.18 -132.97 327.1 -132.22 312.03 -132.15 296.95 -132.78 281.87 -134.04 266.8 -135.83 251.72 -137.99 236.65 -140.32 221.57 -142.62 206.5 -144.7 191.42 -146.35 176.34 -147.45 161.27 -147.89 146.19 -147.63 131.12 -146.7 116.04 -145.18 100.97 -143.2 85.89 -140.93 70.81 -138.59 55.74 -136.37 40.66 -134.47 25.59 -133.05 10.51 -132.25 -4.56 -132.13 -19.63 -132.71 -34.71 -133.93 -49.78 -135.68 -64.86 -137.82 -79.93 -140.14 -95.01 -142.46 -110.09 -144.55 -125.16 -146.25 -134.4 -134.02 -116.34 -115.8 -106.85 -107.16 -97.47 -98.33 -88.19 -89.34 -79.02 -80.25" fill="url(#uuunion-grad2)" filter="url(#uuunion-blur)"></path><path d="M783.74 384.67Q793.54 385.89 803.35 387.68 813.15 389.95 822.96 392.62 832.77 395.59 842.57 398.74 852.38 401.93 862.18 405.05 857.39 420.12 855.91 435.19 857.94 450.26 863.19 465.33 870.9 480.4 879.94 495.47 888.99 510.54 896.72 525.62 902.01 540.69 904.08 555.76 902.63 570.83 897.88 585.9 890.51 600.97 881.61 616.04 872.47 631.11 864.43 646.18 858.66 661.25 856.01 676.33 856.87 691.4 861.1 706.47 868.1 721.54 876.83 736.61 886.03 751.68 894.34 766.75 900.56 781.82 903.77 796.89 903.51 811.97 899.81 827.04 893.22 842.11 884.69 857.18 875.48 872.25 866.93 887.32 853.36 881.06 839.79 874.72 826.22 868.78 812.65 863.68 799.08 859.81 785.51 857.46 771.94 856.81 758.37 857.9 744.8 860.66 731.23 864.88 717.66 870.23 704.09 876.32 690.52 882.69 676.95 888.85 663.38 894.34 649.81 898.76 636.24 901.76 622.67 903.12 609.11 902.74 595.54 900.65 581.97 897 568.4 892.07 554.83 886.23 541.26 879.92 527.69 873.62 514.12 867.8 500.55 862.89 486.98 859.27 473.41 857.22 459.84 856.88 446.27 858.28 432.7 861.31 419.13 865.76 405.56 871.27 391.99 877.45 378.42 883.81 364.85 889.89 351.28 895.22 337.71 899.41 324.14 902.13 310.57 903.19 297 902.49 283.43 900.11 269.86 896.21 256.29 891.09 242.72 885.13 229.15 878.79 215.58 872.53 202.01 866.84 188.44 862.14 174.87 858.79 161.3 857.03 147.73 857 134.16 858.7 120.59 862.01 107.02 866.67 93.46 872.34 79.89 878.58 66.32 884.93 52.75 890.9 39.18 896.06 25.61 900 5.36 897.74 -1.05 882.89 -0.81 872.74 -0.57 862.59 -0.36 852.44 -0.19 842.29 0.19 827.07 0.99 822 13.82 814.97 26.61 806.64 39.33 797.14 51.97 786.68 64.5 775.53 76.91 764.01 89.19 752.44 101.34 741.15 113.36 730.46 125.25 720.62 137.04 711.86 148.73 704.33 160.35 698.09 171.93 693.12 183.5 689.35 195.1 686.6 206.75 684.64 218.51 683.21 230.39 682.01 242.44 680.7 254.67 679 267.12 676.62 279.81 673.33 292.73 668.96 305.9 663.39 319.32 656.6 332.96 648.63 346.81 639.6 360.85 629.7 375.03 619.15 389.31 608.23 403.65 597.23 417.99 586.45 432.29 576.17 446.49 566.63 460.52 558.03 474.35 550.5 487.92 544.11 501.18 538.86 514.11 534.68 526.67 531.43 538.85 528.91 550.64 526.88 562.04 525.07 573.07 523.22 583.74 521.04 594.11 518.29 604.21 514.76 614.1 510.29 623.84 504.77 633.51 498.17 643.18 490.54 652.93 481.95 662.83 472.57 672.97 462.6 683.41 452.29 694.22 441.87 705.46 431.62 717.17 421.77 729.41 412.56 742.18 404.14 755.49 396.66 776.55 387.42 783.74 384.67" fill="url(#uuunion-grad3)" filter="url(#uuunion-blur2)"></path></svg>